<svg width="191" height="114" viewBox="0 0 191 114" fill="none" xmlns="http://www.w3.org/2000/svg">
<path d="M0.430598 18.2478L0.861619 18.7119L0.864411 18.7093L0.874135 18.7003L0.91389 18.6637C0.949321 18.6311 1.00248 18.5825 1.07258 18.5188C1.2128 18.3914 1.4208 18.2039 1.69039 17.9649C2.22961 17.4867 3.01501 16.8027 3.99706 15.9814C5.96187 14.3382 8.71041 12.1484 11.8471 9.96C14.9857 7.77024 18.501 5.59019 22.0002 3.95968C25.5087 2.32479 28.9503 1.26667 31.9549 1.26667C37.9391 1.26667 42.4969 5.45755 47.2861 9.90469L47.3804 9.99219C52.0476 14.3263 56.9525 18.8812 63.4793 18.8812C70.006 18.8812 74.9109 14.3263 79.5782 9.99219L79.6724 9.90469C84.4616 5.45755 89.0194 1.26667 95.0036 1.26667C100.988 1.26667 105.546 5.45755 110.335 9.90469L110.429 9.99221C115.096 14.3263 120.001 18.8812 126.528 18.8812C133.055 18.8812 137.96 14.3263 142.627 9.99221L142.721 9.90469C147.51 5.45755 152.068 1.26667 158.052 1.26667C161.057 1.26667 164.498 2.32479 168.007 3.95968C171.506 5.59019 175.022 7.77024 178.16 9.96C181.297 12.1484 184.045 14.3382 186.01 15.9814C186.992 16.8027 187.778 17.4867 188.317 17.9649C188.586 18.2039 188.794 18.3914 188.935 18.5188C189.005 18.5825 189.058 18.6311 189.093 18.6637L189.133 18.7003L189.145 18.7114L189.577 18.2478L189.967 17.8269C190.007 17.7836 190.007 17.7834 190.007 17.7834L190.003 17.78L189.993 17.7698L189.95 17.7309C189.913 17.6968 189.858 17.6466 189.786 17.5813C189.643 17.4506 189.431 17.2597 189.157 17.0171C188.61 16.5319 187.815 15.8398 186.823 15.0097C184.838 13.3502 182.06 11.1364 178.885 8.92117C175.712 6.70731 172.131 4.48374 168.542 2.81153C164.963 1.1437 161.325 0 158.052 0C151.526 0 146.621 4.55485 141.953 8.889L141.859 8.97648C137.07 13.4236 132.512 17.6145 126.528 17.6145C120.544 17.6145 115.986 13.4236 111.197 8.97648L111.103 8.889C106.435 4.55485 101.53 0 95.0036 0C88.4769 0 83.5719 4.55485 78.9047 8.889L78.8105 8.97648C74.0212 13.4236 69.4634 17.6145 63.4793 17.6145C57.4951 17.6145 52.9373 13.4236 48.148 8.97648L48.0538 8.88898C43.3866 4.55484 38.4817 0 31.9549 0C28.6822 0 25.0445 1.1437 21.4652 2.81153C17.8765 4.48374 14.2955 6.70731 11.1223 8.92117C7.94727 11.1364 5.16876 13.3502 3.18444 15.0097C2.19194 15.8398 1.39726 16.5319 0.850041 17.0171C0.576413 17.2597 0.364604 17.4506 0.220815 17.5813C0.14892 17.6466 0.0940246 17.6968 0.0569054 17.7309L0.0146535 17.7698L0.000810128 17.7826C0.000810128 17.7826 -0.000356925 17.7837 0.430598 18.2478Z" fill="#F0F0F0"/>
<path d="M0.430598 49.9545L0.861619 50.4186L0.864411 50.416L0.874135 50.407L0.91389 50.3704C0.949321 50.3378 1.00248 50.2892 1.07258 50.2255C1.2128 50.0981 1.4208 49.9106 1.69039 49.6715C2.22961 49.1934 3.01501 48.5094 3.99706 47.6881C5.96187 46.0449 8.71041 43.8551 11.8471 41.6667C14.9857 39.4769 18.501 37.2969 22.0002 35.6664C25.5087 34.0315 28.9503 32.9734 31.9549 32.9734C37.9391 32.9734 42.4969 37.1642 47.2861 41.6114L47.3804 41.6989C52.0476 46.033 56.9525 50.5879 63.4793 50.5879C70.006 50.5879 74.9109 46.033 79.5782 41.6989L79.6724 41.6114C84.4616 37.1642 89.0194 32.9734 95.0036 32.9734C100.988 32.9734 105.546 37.1642 110.335 41.6114L110.429 41.6989C115.096 46.033 120.001 50.5879 126.528 50.5879C133.055 50.5879 137.96 46.033 142.627 41.6989L142.721 41.6114C147.51 37.1642 152.068 32.9734 158.052 32.9734C161.057 32.9734 164.498 34.0315 168.007 35.6664C171.506 37.2969 175.022 39.4769 178.16 41.6667C181.297 43.8551 184.045 46.0449 186.01 47.6881C186.992 48.5094 187.778 49.1934 188.317 49.6715C188.586 49.9106 188.794 50.0981 188.935 50.2255C189.005 50.2892 189.058 50.3378 189.093 50.3704L189.133 50.407L189.145 50.4181L189.577 49.9545C190.008 49.4904 190.007 49.4901 190.007 49.4901L190.003 49.4866L189.993 49.4765L189.95 49.4376C189.913 49.4035 189.858 49.3533 189.786 49.2879C189.643 49.1573 189.431 48.9664 189.157 48.7238C188.61 48.2386 187.815 47.5465 186.823 46.7164C184.838 45.0569 182.06 42.8431 178.885 40.6279C175.712 38.414 172.131 36.1904 168.542 34.5182C164.963 32.8504 161.325 31.7067 158.052 31.7067C151.526 31.7067 146.621 36.2615 141.953 40.5957L141.859 40.6832C137.07 45.1303 132.512 49.3212 126.528 49.3212C120.544 49.3212 115.986 45.1303 111.197 40.6832L111.103 40.5957C106.435 36.2615 101.53 31.7067 95.0036 31.7067C88.4769 31.7067 83.5719 36.2615 78.9047 40.5957L78.8105 40.6832C74.0212 45.1303 69.4634 49.3212 63.4793 49.3212C57.4951 49.3212 52.9373 45.1303 48.148 40.6832L48.0538 40.5957C43.3866 36.2615 38.4817 31.7067 31.9549 31.7067C28.6822 31.7067 25.0445 32.8504 21.4652 34.5182C17.8765 36.1904 14.2955 38.414 11.1223 40.6279C7.94727 42.8431 5.16876 45.0569 3.18444 46.7164C2.19194 47.5465 1.39726 48.2386 0.850041 48.7238C0.576413 48.9664 0.364604 49.1573 0.220815 49.2879C0.14892 49.3533 0.0940246 49.4035 0.0569054 49.4376L0.0146535 49.4765L0.0037069 49.4866L0.000810128 49.4893C0.000810128 49.4893 -0.000356925 49.4904 0.430598 49.9545Z" fill="#F0F0F0"/>
<path d="M0.861619 82.125L0.430598 81.661C-0.000356925 81.1969 9.79319e-06 81.1965 9.79319e-06 81.1965L0.0037069 81.1931L0.0146535 81.183L0.0569054 81.1441C0.0940246 81.11 0.14892 81.0597 0.220815 80.9944C0.364604 80.8638 0.576413 80.6728 0.850041 80.4302C1.39726 79.945 2.19194 79.2529 3.18444 78.4229C5.16876 76.7634 7.94727 74.5495 11.1223 72.3343C14.2955 70.1204 17.8765 67.8969 21.4652 66.2247C25.0445 64.5568 28.6822 63.4131 31.9549 63.4131C38.4817 63.4131 43.3866 67.968 48.0538 72.3021L48.148 72.3896C52.9373 76.8368 57.4951 81.0276 63.4793 81.0276C69.4634 81.0276 74.0212 76.8368 78.8105 72.3896L78.9047 72.3021C83.5719 67.968 88.4769 63.4131 95.0036 63.4131C101.53 63.4131 106.435 67.968 111.103 72.3021L111.197 72.3896C115.986 76.8368 120.544 81.0276 126.528 81.0276C132.512 81.0276 137.07 76.8368 141.859 72.3896L141.953 72.3021C146.621 67.968 151.526 63.4131 158.052 63.4131C161.325 63.4131 164.963 64.5568 168.542 66.2247C172.131 67.8969 175.712 70.1204 178.885 72.3343C182.06 74.5495 184.838 76.7634 186.823 78.4229C187.815 79.2529 188.61 79.945 189.157 80.4302C189.431 80.6728 189.643 80.8638 189.786 80.9944C189.858 81.0597 189.913 81.11 189.95 81.1441L189.993 81.183L190.006 81.1958C190.006 81.1958 190.008 81.1969 189.577 81.661L189.146 82.125L189.143 82.1224L189.133 82.1134L189.093 82.0768L189.067 82.053L189.016 82.0059C188.992 81.9841 188.965 81.9594 188.935 81.9319C188.794 81.8045 188.586 81.617 188.317 81.378C187.778 80.8999 186.992 80.2159 186.01 79.3945C184.045 77.7513 181.297 75.5616 178.16 73.3731C175.022 71.1834 171.506 69.0033 168.007 67.3728C164.498 65.7379 161.057 64.6798 158.052 64.6798C152.068 64.6798 147.51 68.8707 142.721 73.3178L142.627 73.4054C137.96 77.7395 133.055 82.2943 126.528 82.2943C120.001 82.2943 115.096 77.7395 110.429 73.4054L110.335 73.3178C105.546 68.8707 100.988 64.6798 95.0036 64.6798C89.0194 64.6798 84.4616 68.8707 79.6724 73.3178L79.5782 73.4053C74.9109 77.7395 70.006 82.2943 63.4793 82.2943C56.9525 82.2943 52.0476 77.7395 47.3804 73.4053L47.2861 73.3178C42.4969 68.8707 37.9391 64.6798 31.9549 64.6798C28.9503 64.6798 25.5087 65.7379 22.0002 67.3728C18.501 69.0033 14.9857 71.1834 11.8471 73.3731C8.71041 75.5616 5.96187 77.7513 3.99706 79.3945C3.01501 80.2159 2.22961 80.8999 1.69039 81.378C1.4208 81.617 1.2128 81.8045 1.07258 81.9319C1.00248 81.9956 0.949321 82.0443 0.91389 82.0768L0.874135 82.1134L0.861619 82.125Z" fill="#F0F0F0"/>
<path d="M0.430598 113.367L0.861619 113.831L0.874135 113.819L0.91389 113.783C0.949321 113.75 1.00248 113.701 1.07258 113.638C1.2128 113.51 1.4208 113.323 1.69039 113.084C2.22961 112.606 3.01501 111.922 3.99706 111.1C5.96187 109.457 8.71041 107.267 11.8471 105.079C14.9857 102.889 18.501 100.709 22.0002 99.0785C25.5087 97.4436 28.9503 96.3855 31.9549 96.3855C37.9391 96.3855 42.4969 100.576 47.2861 105.024L47.3804 105.111C52.0476 109.445 56.9525 114 63.4793 114C70.006 114 74.9109 109.445 79.5782 105.111L79.6724 105.024C84.4616 100.576 89.0194 96.3855 95.0036 96.3855C100.988 96.3855 105.546 100.576 110.335 105.024L110.429 105.111C115.096 109.445 120.001 114 126.528 114C133.055 114 137.96 109.445 142.627 105.111L142.721 105.024C147.51 100.576 152.068 96.3855 158.052 96.3855C161.057 96.3855 164.498 97.4436 168.007 99.0785C171.506 100.709 175.022 102.889 178.16 105.079C181.297 107.267 184.045 109.457 186.01 111.1C186.992 111.922 187.778 112.606 188.317 113.084C188.586 113.323 188.794 113.51 188.935 113.638C189.005 113.701 189.058 113.75 189.093 113.783L189.133 113.819L189.143 113.828L189.145 113.83L189.577 113.367C190.008 112.903 190.007 112.902 190.007 112.902L190.003 112.899L189.993 112.889L189.95 112.85C189.913 112.816 189.858 112.765 189.786 112.7C189.643 112.569 189.431 112.379 189.157 112.136C188.61 111.651 187.815 110.959 186.823 110.129C184.838 108.469 182.06 106.255 178.885 104.04C175.712 101.826 172.131 99.6026 168.542 97.9304C164.963 96.2625 161.325 95.1188 158.052 95.1188C151.526 95.1188 146.621 99.6737 141.953 104.008L141.859 104.095C137.07 108.542 132.512 112.733 126.528 112.733C120.544 112.733 115.986 108.542 111.197 104.095L111.103 104.008C106.435 99.6737 101.53 95.1188 95.0036 95.1188C88.4769 95.1188 83.5719 99.6737 78.9047 104.008L78.8105 104.095C74.0212 108.542 69.4634 112.733 63.4793 112.733C57.4951 112.733 52.9373 108.542 48.148 104.095L48.0538 104.008C43.3866 99.6737 38.4817 95.1188 31.9549 95.1188C28.6822 95.1188 25.0445 96.2625 21.4652 97.9304C17.8765 99.6026 14.2955 101.826 11.1223 104.04C7.94727 106.255 5.16876 108.469 3.18444 110.129C2.19194 110.959 1.39726 111.651 0.850041 112.136C0.576413 112.379 0.364604 112.569 0.220815 112.7C0.14892 112.765 0.0940246 112.816 0.0569054 112.85L0.0146535 112.889L0.0037069 112.899L0.000810128 112.901C0.000810128 112.901 -0.000356925 112.903 0.430598 113.367Z" fill="#F0F0F0"/>
</svg>
