<svg width="11" height="9" viewBox="0 0 11 9" fill="none" xmlns="http://www.w3.org/2000/svg">
<path d="M8.048 4C7.792 4 7.44 3.904 6.992 3.712C6.56 3.52 6.096 3.296 5.6 3.04C5.104 2.768 4.64 2.536 4.208 2.344C3.792 2.152 3.48 2.056 3.272 2.056C3.048 2.056 2.768 2.192 2.432 2.464C2.112 2.736 1.744 3.104 1.328 3.568L0.464 2.896C1.024 2.064 1.52 1.408 1.952 0.927999C2.4 0.432 2.848 0.184 3.296 0.184C3.696 0.184 4.256 0.368 4.976 0.736C5.712 1.088 6.712 1.592 7.976 2.248L9.992 0.568L10.664 1.168C9.992 2.192 9.464 2.92 9.08 3.352C8.712 3.784 8.368 4 8.048 4ZM8.048 8.08C7.792 8.08 7.44 7.984 6.992 7.792C6.56 7.6 6.096 7.376 5.6 7.12C5.104 6.848 4.64 6.616 4.208 6.424C3.792 6.232 3.48 6.136 3.272 6.136C3.048 6.136 2.768 6.272 2.432 6.544C2.112 6.816 1.744 7.184 1.328 7.648L0.464 6.976C1.024 6.144 1.52 5.488 1.952 5.008C2.4 4.512 2.848 4.264 3.296 4.264C3.696 4.264 4.256 4.448 4.976 4.816C5.712 5.168 6.712 5.672 7.976 6.328L9.992 4.648L10.664 5.248C9.992 6.272 9.464 7 9.08 7.432C8.712 7.864 8.368 8.08 8.048 8.08Z" fill="#F0F0F0"/>
</svg>
