<svg width="15" height="12" viewBox="0 0 15 12" fill="none" xmlns="http://www.w3.org/2000/svg">
<path d="M11.064 6C10.7227 6 10.2533 5.872 9.656 5.616C9.08 5.36 8.46133 5.06133 7.8 4.72C7.13867 4.35733 6.52 4.048 5.944 3.792C5.38933 3.536 4.97333 3.408 4.696 3.408C4.39733 3.408 4.024 3.58933 3.576 3.952C3.14933 4.31467 2.65867 4.80533 2.104 5.424L0.952 4.528C1.69867 3.41867 2.36 2.544 2.936 1.904C3.53333 1.24267 4.13067 0.912 4.728 0.912C5.26133 0.912 6.008 1.15733 6.968 1.648C7.94933 2.11733 9.28267 2.78933 10.968 3.664L13.656 1.424L14.552 2.224C13.656 3.58933 12.952 4.56 12.44 5.136C11.9493 5.712 11.4907 6 11.064 6ZM11.064 11.44C10.7227 11.44 10.2533 11.312 9.656 11.056C9.08 10.8 8.46133 10.5013 7.8 10.16C7.13867 9.79733 6.52 9.488 5.944 9.232C5.38933 8.976 4.97333 8.848 4.696 8.848C4.39733 8.848 4.024 9.02933 3.576 9.392C3.14933 9.75467 2.65867 10.2453 2.104 10.864L0.952 9.968C1.69867 8.85867 2.36 7.984 2.936 7.344C3.53333 6.68267 4.13067 6.352 4.728 6.352C5.26133 6.352 6.008 6.59733 6.968 7.088C7.94933 7.55733 9.28267 8.22933 10.968 9.104L13.656 6.864L14.552 7.664C13.656 9.02933 12.952 10 12.44 10.576C11.9493 11.152 11.4907 11.44 11.064 11.44Z" fill="#F0F0F0"/>
</svg>
