<svg width="24" height="24" viewBox="0 0 24 24" fill="none" xmlns="http://www.w3.org/2000/svg">
<path fill-rule="evenodd" clip-rule="evenodd" d="M7.58041 9.42612C8.1582 9.1868 8.79398 9.12418 9.40736 9.24618C10.0207 9.36819 10.5842 9.66935 11.0264 10.1116C11.4686 10.5538 11.7698 11.1172 11.8918 11.7306C12.0138 12.344 11.9512 12.9798 11.7118 13.5575C11.4725 14.1353 11.0672 14.6292 10.5472 14.9766C10.0272 15.3241 9.41587 15.5095 8.79047 15.5095C7.95184 15.5095 7.14756 15.1764 6.55456 14.5834C5.96156 13.9904 5.62842 13.1861 5.62842 12.3475C5.62842 11.7221 5.81387 11.1107 6.16132 10.5907C6.50877 10.0707 7.00262 9.66545 7.58041 9.42612ZM9.19145 10.3316C8.79275 10.2523 8.37949 10.293 8.00393 10.4486C7.62837 10.6042 7.30737 10.8676 7.08152 11.2056C6.85568 11.5436 6.73514 11.941 6.73514 12.3475C6.73514 12.8926 6.95168 13.4154 7.33713 13.8008C7.72258 14.1863 8.24536 14.4028 8.79047 14.4028C9.19698 14.4028 9.59436 14.2823 9.93235 14.0564C10.2704 13.8306 10.5338 13.5096 10.6894 13.134C10.8449 12.7585 10.8856 12.3452 10.8063 11.9465C10.727 11.5478 10.5313 11.1816 10.2438 10.8941C9.95637 10.6067 9.59014 10.4109 9.19145 10.3316Z" fill="#FAFAFA"/>
<path d="M2.8457 5.21741V6.32413H10.9089V23.3992H12.0157V13.4261L20.237 19.7629L21.1856 18.498L15.0196 13.736L14.9137 13.6601L14.7477 13.5257L14.4315 13.2854L14.2497 13.1273L14.1437 13.0372L14.071 12.985L13.3153 12.3984L12.9532 12.1123L13.0212 12.0648L13.8908 11.4482L13.9856 11.385L14.1912 11.2427L14.4125 11.0846L14.4599 11.053L14.5548 10.9739L14.5706 10.9581L15.124 10.5471L21.0734 6.32413H21.1856V5.21741H2.8457ZM12.1738 11.4467L12.0157 11.5652V6.32413H19.4006L12.1738 11.4467Z" fill="#FAFAFA"/>
<path fill-rule="evenodd" clip-rule="evenodd" d="M7.4078 0.913451C9.60051 0.00519938 12.0133 -0.232441 14.3411 0.230582C16.6689 0.693605 18.807 1.83649 20.4853 3.51472C22.1635 5.19295 23.3064 7.33115 23.7694 9.65892C24.2324 11.9867 23.9948 14.3995 23.0865 16.5922C22.1783 18.7849 20.6402 20.6591 18.6668 21.9776C16.6934 23.2962 14.3734 24 12 24C8.8174 24 5.76515 22.7357 3.51472 20.4853C1.26428 18.2348 0 15.1826 0 12C0 9.62663 0.703787 7.30655 2.02236 5.33316C3.34094 3.35977 5.21508 1.8217 7.4078 0.913451ZM14.0943 1.4711C12.0119 1.05688 9.85342 1.26947 7.89182 2.08199C5.93023 2.89451 4.25362 4.27047 3.07403 6.03586C1.89443 7.80125 1.26482 9.87679 1.26482 12C1.26482 14.8471 2.39585 17.5777 4.40908 19.5909C6.42232 21.6042 9.15285 22.7352 12 22.7352C14.1232 22.7352 16.1988 22.1056 17.9641 20.926C19.7295 19.7464 21.1055 18.0698 21.918 16.1082C22.7305 14.1466 22.9431 11.9881 22.5289 9.90567C22.1147 7.82325 21.0923 5.91043 19.5909 4.40909C18.0896 2.90775 16.1767 1.88532 14.0943 1.4711Z" fill="#FAFAFA"/>
</svg>
