<svg width="24" height="24" viewBox="0 0 24 24" fill="none" xmlns="http://www.w3.org/2000/svg">
<path d="M20.487 17.1401L16.422 13.4441C16.2299 13.2695 15.9774 13.1763 15.7178 13.1843C15.4583 13.1924 15.212 13.3009 15.031 13.4871L12.638 15.9481C12.062 15.8381 10.904 15.4771 9.71204 14.2881C8.52004 13.0951 8.15904 11.9341 8.05204 11.3621L10.511 8.96812C10.6975 8.78725 10.8062 8.54094 10.8142 8.28132C10.8222 8.02171 10.7289 7.76916 10.554 7.57712L6.85904 3.51312C6.68408 3.32047 6.44092 3.20362 6.18119 3.18738C5.92146 3.17113 5.66564 3.25678 5.46804 3.42612L3.29804 5.28712C3.12515 5.46063 3.02196 5.69157 3.00804 5.93612C2.99304 6.18612 2.70704 12.1081 7.29904 16.7021C11.305 20.7071 16.323 21.0001 17.705 21.0001C17.907 21.0001 18.031 20.9941 18.064 20.9921C18.3086 20.9784 18.5394 20.8748 18.712 20.7011L20.572 18.5301C20.7421 18.3332 20.8283 18.0775 20.8124 17.8178C20.7966 17.5581 20.6798 17.3149 20.487 17.1401Z" fill="#FAFAFA"/>
</svg>
